<svg width="42" height="14" viewBox="0 0 42 14" fill="none" xmlns="http://www.w3.org/2000/svg">
<g clip-path="url(#clip0_189_2)">
<path d="M20.9262 6.11898H20L20.6706 2.96677H21.5969L20.9262 6.11898Z" fill="white"/>
<path d="M22.5362 6.11898H21.6515L22.3221 2.96677H22.9469L23.8709 4.5964H23.9146L24.2619 2.96677H25.1466L24.476 6.11898H23.8643L22.9207 4.5112H22.877L22.5362 6.11898Z" fill="white"/>
<path d="M25.2449 5.19931H26.1231C26.1289 5.26339 26.1551 5.32019 26.2017 5.3697C26.2483 5.41776 26.3081 5.45563 26.3809 5.4833C26.4537 5.50951 26.5323 5.52262 26.6168 5.52262C26.7085 5.52262 26.7894 5.51097 26.8593 5.48766C26.9292 5.46291 26.9838 5.42868 27.0231 5.38499C27.0639 5.3413 27.0843 5.29033 27.0843 5.23208C27.0843 5.16946 27.0573 5.11849 27.0034 5.07917C26.9496 5.03985 26.8534 5.00053 26.7151 4.96121L26.359 4.86072C26.11 4.78936 25.917 4.67649 25.7801 4.52212C25.6447 4.3663 25.577 4.17698 25.577 3.95416C25.577 3.74591 25.636 3.56095 25.7539 3.3993C25.8733 3.23765 26.0357 3.11095 26.2411 3.0192C26.4479 2.926 26.6831 2.87939 26.9466 2.87939C27.2088 2.87939 27.4367 2.92308 27.6304 3.01046C27.8255 3.09639 27.9763 3.21653 28.0826 3.3709C28.1889 3.52527 28.2406 3.70367 28.2377 3.9061H27.3901C27.3901 3.84202 27.369 3.7845 27.3267 3.73353C27.286 3.6811 27.2299 3.63959 27.1585 3.60901C27.0886 3.57697 27.0085 3.56095 26.9183 3.56095C26.8425 3.56095 26.7726 3.57333 26.7085 3.59809C26.6459 3.62139 26.5957 3.65416 26.5578 3.69639C26.5214 3.73862 26.5032 3.78668 26.5032 3.84057C26.5032 3.90756 26.5287 3.96654 26.5797 4.01751C26.6306 4.06848 26.718 4.11071 26.8418 4.14421L27.2066 4.2447C27.4804 4.32042 27.6806 4.42601 27.8073 4.56144C27.934 4.69688 27.9974 4.87819 27.9974 5.10538C27.9974 5.3282 27.9377 5.52262 27.8183 5.68864C27.6988 5.8532 27.5306 5.98063 27.3136 6.07092C27.0981 6.16121 26.8447 6.20636 26.5534 6.20636C26.2928 6.20636 26.0634 6.16631 25.8653 6.08621C25.6687 6.00466 25.5158 5.88888 25.4066 5.73888C25.2974 5.58888 25.2435 5.40902 25.2449 5.19931Z" fill="white"/>
<path d="M29.9612 6.11898H29.035L29.5484 3.70076H28.6724L28.8297 2.96677H31.5078L31.3506 3.70076H30.4746L29.9612 6.11898Z" fill="white"/>
<path d="M32.9977 3.74008L32.4581 4.83887H33.0916L33.0435 3.74008H32.9977ZM33.1353 6.11898L33.1091 5.49203H32.1479L31.8421 6.11898H30.8896L32.6241 2.96677H33.7863L34.1096 6.11898H33.1353Z" fill="white"/>
<path d="M35.5207 6.11898H34.636L35.3067 2.96677H35.9314L36.8555 4.5964H36.8991L37.2465 2.96677H38.1312L37.4606 6.11898H36.8489L35.9052 4.5112H35.8615L35.5207 6.11898Z" fill="white"/>
<path d="M39.8264 6.11898H38.9001L39.4135 3.70076H38.5375L38.6948 2.96677H41.373L41.2157 3.70076H40.3397L39.8264 6.11898Z" fill="white"/>
<path d="M19.1147 11L19.8643 7.47705H21.4341C21.6571 7.47705 21.8548 7.52344 22.0273 7.61621C22.2015 7.70736 22.3382 7.83187 22.4375 7.98975C22.5384 8.14762 22.5889 8.32747 22.5889 8.5293C22.5889 8.69368 22.5571 8.854 22.4937 9.01025C22.4302 9.1665 22.339 9.30648 22.2202 9.43018C22.1014 9.55387 21.9582 9.65072 21.7905 9.7207L22.2544 11H21.1436L20.7627 9.81836H20.4014L20.1499 11H19.1147ZM20.7383 8.24121L20.5503 9.11035H20.9873C21.1029 9.11035 21.203 9.08919 21.2876 9.04688C21.3722 9.00456 21.4373 8.94596 21.4829 8.87109C21.5285 8.79622 21.5513 8.71077 21.5513 8.61475C21.5513 8.48942 21.513 8.39583 21.4365 8.33398C21.3617 8.27214 21.2526 8.24121 21.1094 8.24121H20.7383ZM23.8169 9.30566H24.7275C24.7308 9.29753 24.7332 9.28532 24.7349 9.26904C24.7365 9.25277 24.7373 9.23812 24.7373 9.2251C24.7373 9.15674 24.7202 9.09652 24.686 9.04443C24.6535 8.99235 24.6071 8.95166 24.5469 8.92236C24.4883 8.89307 24.4207 8.87842 24.3442 8.87842C24.2612 8.87842 24.1831 8.89632 24.1099 8.93213C24.0382 8.96794 23.9764 9.01758 23.9243 9.08105C23.8739 9.14453 23.8381 9.2194 23.8169 9.30566ZM24.1318 11.0684C23.8633 11.0684 23.6305 11.0203 23.4336 10.9243C23.2367 10.8267 23.0845 10.6883 22.9771 10.5093C22.8696 10.3286 22.8159 10.1146 22.8159 9.86719C22.8159 9.61816 22.8525 9.39111 22.9258 9.18604C23.0007 8.97933 23.1064 8.80192 23.2432 8.65381C23.3815 8.50407 23.5451 8.38932 23.7339 8.30957C23.9227 8.22819 24.1318 8.1875 24.3613 8.1875C24.6104 8.1875 24.8301 8.23796 25.0205 8.33887C25.2126 8.43978 25.3623 8.57894 25.4697 8.75635C25.5788 8.93376 25.6333 9.13802 25.6333 9.36914C25.6333 9.42611 25.6276 9.50098 25.6162 9.59375C25.6064 9.68652 25.5942 9.77035 25.5796 9.84521H23.7192C23.7192 9.8501 23.7192 9.85498 23.7192 9.85986C23.7192 9.86312 23.7192 9.86719 23.7192 9.87207C23.7192 9.97624 23.738 10.0658 23.7754 10.1406C23.8145 10.2155 23.869 10.2733 23.939 10.314C24.0106 10.353 24.0952 10.3726 24.1929 10.3726C24.2922 10.3726 24.3768 10.3522 24.4468 10.3115C24.5184 10.2692 24.5672 10.2122 24.5933 10.1406H25.5161C25.4705 10.3311 25.3835 10.4954 25.2549 10.6338C25.1263 10.7721 24.966 10.8796 24.7739 10.9561C24.5835 11.0309 24.3695 11.0684 24.1318 11.0684ZM27.4985 10.2529C27.5767 10.2529 27.6507 10.2326 27.7207 10.1919C27.7907 10.1496 27.8517 10.091 27.9038 10.0161C27.9575 9.93962 27.9998 9.85173 28.0308 9.75244C28.0617 9.65153 28.0771 9.54248 28.0771 9.42529C28.0771 9.2723 28.0389 9.15918 27.9624 9.08594C27.8875 9.01107 27.8013 8.97363 27.7036 8.97363C27.6255 8.97363 27.5514 8.99642 27.4814 9.04199C27.4131 9.08594 27.3521 9.14697 27.2983 9.2251C27.2446 9.30322 27.2023 9.39193 27.1714 9.49121C27.1421 9.59049 27.1274 9.69466 27.1274 9.80371C27.1274 9.95671 27.1649 10.0698 27.2397 10.1431C27.3146 10.2163 27.4009 10.2529 27.4985 10.2529ZM26.666 11.9033H25.665L26.4414 8.25586H27.418L27.335 8.6416H27.3838C27.4749 8.51628 27.5864 8.41455 27.7183 8.33643C27.8501 8.25667 28.012 8.2168 28.2041 8.2168C28.3864 8.2168 28.5451 8.25749 28.6802 8.33887C28.8169 8.42025 28.9227 8.53825 28.9976 8.69287C29.0741 8.84749 29.1123 9.03467 29.1123 9.25439C29.1123 9.51481 29.0781 9.75407 29.0098 9.97217C28.9414 10.1903 28.8454 10.3791 28.7217 10.5386C28.598 10.6981 28.4539 10.8218 28.2896 10.9097C28.1252 10.9959 27.9461 11.0391 27.7524 11.0391C27.6206 11.0391 27.5042 11.0163 27.4033 10.9707C27.3024 10.9251 27.2186 10.8633 27.1519 10.7852C27.0868 10.7054 27.0404 10.6143 27.0127 10.5117H26.9639L26.666 11.9033ZM29.3247 11L30.123 7.24512H31.124L30.3257 11H29.3247ZM32.2739 10.3652C32.3439 10.3652 32.4098 10.3514 32.4717 10.3237C32.5335 10.2961 32.5856 10.2586 32.6279 10.2114C32.6702 10.1642 32.6979 10.1105 32.7109 10.0503L32.7476 9.87695L32.335 9.88672C32.2259 9.88835 32.138 9.91357 32.0713 9.9624C32.0046 10.0096 31.9712 10.0715 31.9712 10.1479C31.9712 10.2131 31.9989 10.266 32.0542 10.3066C32.1112 10.3457 32.1844 10.3652 32.2739 10.3652ZM31.8052 11.0391C31.6538 11.0391 31.5179 11.0073 31.3975 10.9438C31.2786 10.8787 31.1842 10.79 31.1143 10.6777C31.0443 10.5654 31.0093 10.4385 31.0093 10.2969C31.0093 10.012 31.1216 9.78581 31.3462 9.61816C31.5724 9.44889 31.8809 9.36019 32.2715 9.35205L32.8623 9.33984L32.8965 9.18115C32.8997 9.15999 32.9022 9.14453 32.9038 9.13477C32.9054 9.12337 32.9062 9.11442 32.9062 9.10791C32.9062 9.04606 32.8761 8.99642 32.8159 8.95898C32.7557 8.92155 32.6768 8.90283 32.5791 8.90283C32.5238 8.90283 32.4725 8.90934 32.4253 8.92236C32.3797 8.93538 32.3398 8.9541 32.3057 8.97852C32.2731 9.0013 32.2471 9.0306 32.2275 9.06641H31.3291C31.3665 8.88737 31.4455 8.73275 31.5659 8.60254C31.6864 8.4707 31.8394 8.36898 32.0249 8.29736C32.2104 8.22412 32.4188 8.1875 32.6499 8.1875C32.894 8.1875 33.1081 8.22331 33.292 8.29492C33.4775 8.36491 33.6216 8.46257 33.7241 8.58789C33.8283 8.71322 33.8804 8.8597 33.8804 9.02734C33.8804 9.06152 33.8779 9.09977 33.873 9.14209C33.8698 9.18441 33.8649 9.2194 33.8584 9.24707L33.4849 11H32.5132L32.5815 10.6777H32.5327C32.4904 10.751 32.4318 10.8145 32.3569 10.8682C32.2821 10.9219 32.1966 10.9642 32.1006 10.9951C32.0062 11.0244 31.9077 11.0391 31.8052 11.0391ZM34.188 12.0059C34.1294 12.0059 34.07 12.0059 34.0098 12.0059C33.9512 12.0059 33.8918 12.0059 33.8315 12.0059L33.9902 11.2588C34.0146 11.2588 34.0391 11.2588 34.0635 11.2588C34.0879 11.2588 34.1123 11.2588 34.1367 11.2588C34.2865 11.2588 34.4085 11.2425 34.5029 11.21C34.599 11.1774 34.6543 11.1335 34.6689 11.0781C34.6706 11.0732 34.6714 11.0675 34.6714 11.061C34.673 11.0562 34.6738 11.0505 34.6738 11.0439C34.6755 11.0391 34.6771 11.0342 34.6787 11.0293L34.4053 8.25586H35.4355V10.1943H35.4844L36.3096 8.25586H37.3716L35.9727 10.9438C35.8424 11.1961 35.6943 11.4004 35.5283 11.5566C35.3639 11.7129 35.1727 11.8268 34.9546 11.8984C34.7365 11.9701 34.481 12.0059 34.188 12.0059ZM38.6875 9.21289H38.3164L38.563 8.04834H39.1831C39.2938 8.04834 39.3874 8.08496 39.4639 8.1582C39.5404 8.23145 39.5786 8.32259 39.5786 8.43164C39.5786 8.51953 39.5509 8.59847 39.4956 8.66846C39.4419 8.73844 39.3695 8.78809 39.2783 8.81738L39.4517 9.21289H39.0439L38.895 8.84668H38.7632L38.6875 9.21289ZM38.8755 8.33154L38.8218 8.58545H39.022C39.0741 8.58545 39.1147 8.57324 39.144 8.54883C39.1733 8.52279 39.188 8.48942 39.188 8.44873C39.188 8.4113 39.1758 8.38281 39.1514 8.36328C39.1286 8.34212 39.0952 8.33154 39.0513 8.33154H38.8755ZM38.9365 9.93066C38.6777 9.93066 38.4491 9.87614 38.2505 9.76709C38.0535 9.65804 37.8997 9.50667 37.7891 9.31299C37.6784 9.1193 37.623 8.89551 37.623 8.6416C37.623 8.40234 37.6816 8.18587 37.7988 7.99219C37.916 7.79688 38.0739 7.64144 38.2725 7.52588C38.4727 7.41032 38.694 7.35254 38.9365 7.35254C39.1969 7.35254 39.4256 7.40706 39.6226 7.51611C39.8195 7.62516 39.9733 7.77653 40.084 7.97021C40.1947 8.16227 40.25 8.38607 40.25 8.6416C40.25 8.87923 40.1914 9.0957 40.0742 9.29102C39.957 9.48633 39.7992 9.64176 39.6006 9.75732C39.402 9.87288 39.1807 9.93066 38.9365 9.93066ZM38.9365 9.55957C39.1058 9.55957 39.2596 9.51888 39.3979 9.4375C39.5379 9.35449 39.6486 9.24382 39.73 9.10547C39.813 8.96549 39.8545 8.81087 39.8545 8.6416C39.8545 8.45605 39.8162 8.29492 39.7397 8.1582C39.6649 8.01986 39.5583 7.91325 39.4199 7.83838C39.2832 7.76188 39.1221 7.72363 38.9365 7.72363C38.7673 7.72363 38.6126 7.76514 38.4727 7.84814C38.3343 7.92952 38.2236 8.0402 38.1406 8.18018C38.0592 8.31852 38.0186 8.47233 38.0186 8.6416C38.0186 8.82715 38.056 8.9891 38.1309 9.12744C38.2074 9.26416 38.314 9.37077 38.4507 9.44727C38.589 9.52214 38.751 9.55957 38.9365 9.55957Z" fill="white"/>
<path d="M11.8161 3H18.8161L18.3621 5H11.3621L11.8161 3Z" fill="url(#paint0_linear_189_2)"/>
<path d="M6.13505 6H18.1351L17.681 8H5.68103L6.13505 6Z" fill="url(#paint1_linear_189_2)"/>
<path d="M0.45402 9H17.454L17 11H-1.34026e-06L0.45402 9Z" fill="url(#paint2_linear_189_2)"/>
</g>
<defs>
<linearGradient id="paint0_linear_189_2" x1="18.5" y1="3" x2="11.8431" y2="4.5112" gradientUnits="userSpaceOnUse">
<stop stop-color="white"/>
<stop offset="1" stop-color="white" stop-opacity="0"/>
</linearGradient>
<linearGradient id="paint1_linear_189_2" x1="18" y1="6" x2="7.0636" y2="8.48268" gradientUnits="userSpaceOnUse">
<stop stop-color="white"/>
<stop offset="1" stop-color="white" stop-opacity="0"/>
</linearGradient>
<linearGradient id="paint2_linear_189_2" x1="17.5" y1="9" x2="1.33314" y2="12.6701" gradientUnits="userSpaceOnUse">
<stop stop-color="white"/>
<stop offset="1" stop-color="white" stop-opacity="0"/>
</linearGradient>
<clipPath id="clip0_189_2">
<rect width="42" height="14" fill="white"/>
</clipPath>
</defs>
</svg>
