<svg width="130" height="14" viewBox="0 0 130 14" fill="none" xmlns="http://www.w3.org/2000/svg">
<g clip-path="url(#clip0_1_2)">
<path d="M21.7598 11H19.2754L21.0742 2.54492H23.5586L21.7598 11ZM26.0781 11H23.7051L25.5039 2.54492H27.1797L29.6582 6.91602H29.7754L30.707 2.54492H33.0801L31.2812 11H29.6406L27.1094 6.6875H26.9922L26.0781 11ZM33.3438 8.5332H35.6992C35.7148 8.70508 35.7852 8.85742 35.9102 8.99023C36.0352 9.11914 36.1953 9.2207 36.3906 9.29492C36.5859 9.36523 36.7969 9.40039 37.0234 9.40039C37.2695 9.40039 37.4863 9.36914 37.6738 9.30664C37.8613 9.24023 38.0078 9.14844 38.1133 9.03125C38.2227 8.91406 38.2773 8.77734 38.2773 8.62109C38.2773 8.45312 38.2051 8.31641 38.0605 8.21094C37.916 8.10547 37.6582 8 37.2871 7.89453L36.332 7.625C35.6641 7.43359 35.1465 7.13086 34.7793 6.7168C34.416 6.29883 34.2344 5.79102 34.2344 5.19336C34.2344 4.63477 34.3926 4.13867 34.709 3.70508C35.0293 3.27148 35.4648 2.93164 36.0156 2.68555C36.5703 2.43555 37.2012 2.31055 37.9082 2.31055C38.6113 2.31055 39.2227 2.42773 39.7422 2.66211C40.2656 2.89258 40.6699 3.21484 40.9551 3.62891C41.2402 4.04297 41.3789 4.52148 41.3711 5.06445H39.0977C39.0977 4.89258 39.041 4.73828 38.9277 4.60156C38.8184 4.46094 38.668 4.34961 38.4766 4.26758C38.2891 4.18164 38.0742 4.13867 37.832 4.13867C37.6289 4.13867 37.4414 4.17188 37.2695 4.23828C37.1016 4.30078 36.9668 4.38867 36.8652 4.50195C36.7676 4.61523 36.7188 4.74414 36.7188 4.88867C36.7188 5.06836 36.7871 5.22656 36.9238 5.36328C37.0605 5.5 37.2949 5.61328 37.627 5.70312L38.6055 5.97266C39.3398 6.17578 39.877 6.45898 40.2168 6.82227C40.5566 7.18555 40.7266 7.67188 40.7266 8.28125C40.7266 8.87891 40.5664 9.40039 40.2461 9.8457C39.9258 10.2871 39.4746 10.6289 38.8926 10.8711C38.3145 11.1133 37.6348 11.2344 36.8535 11.2344C36.1543 11.2344 35.5391 11.127 35.0078 10.9121C34.4805 10.6934 34.0703 10.3828 33.7773 9.98047C33.4844 9.57812 33.3398 9.0957 33.3438 8.5332ZM45.9941 11H43.5098L44.8867 4.51367H42.5371L42.959 2.54492H50.1426L49.7207 4.51367H47.3711L45.9941 11ZM54.1387 4.61914L52.6914 7.56641H54.3906L54.2617 4.61914H54.1387ZM54.5078 11L54.4375 9.31836H51.8594L51.0391 11H48.4844L53.1367 2.54492H56.2539L57.1211 11H54.5078ZM60.9062 11H58.5332L60.332 2.54492H62.0078L64.4863 6.91602H64.6035L65.5352 2.54492H67.9082L66.1094 11H64.4688L61.9375 6.6875H61.8203L60.9062 11ZM72.4551 11H69.9707L71.3477 4.51367H68.998L69.4199 2.54492H76.6035L76.1816 4.51367H73.832L72.4551 11ZM79.1113 11L80.9102 2.54492H84.6777C85.2129 2.54492 85.6875 2.65625 86.1016 2.87891C86.5195 3.09766 86.8477 3.39648 87.0859 3.77539C87.3281 4.1543 87.4492 4.58594 87.4492 5.07031C87.4492 5.46484 87.373 5.84961 87.2207 6.22461C87.0684 6.59961 86.8496 6.93555 86.5645 7.23242C86.2793 7.5293 85.9355 7.76172 85.5332 7.92969L86.6465 11H83.9805L83.0664 8.16406H82.1992L81.5957 11H79.1113ZM83.0078 4.37891L82.5566 6.46484H83.6055C83.8828 6.46484 84.123 6.41406 84.3262 6.3125C84.5293 6.21094 84.6855 6.07031 84.7949 5.89062C84.9043 5.71094 84.959 5.50586 84.959 5.27539C84.959 4.97461 84.8672 4.75 84.6836 4.60156C84.5039 4.45312 84.2422 4.37891 83.8984 4.37891H83.0078ZM90.3965 6.93359H92.582C92.5898 6.91406 92.5957 6.88477 92.5996 6.8457C92.6035 6.80664 92.6055 6.77148 92.6055 6.74023C92.6055 6.57617 92.5645 6.43164 92.4824 6.30664C92.4043 6.18164 92.293 6.08398 92.1484 6.01367C92.0078 5.94336 91.8457 5.9082 91.6621 5.9082C91.4629 5.9082 91.2754 5.95117 91.0996 6.03711C90.9277 6.12305 90.7793 6.24219 90.6543 6.39453C90.5332 6.54688 90.4473 6.72656 90.3965 6.93359ZM91.1523 11.1641C90.5078 11.1641 89.9492 11.0488 89.4766 10.8184C89.0039 10.584 88.6387 10.252 88.3809 9.82227C88.123 9.38867 87.9941 8.875 87.9941 8.28125C87.9941 7.68359 88.082 7.13867 88.2578 6.64648C88.4375 6.15039 88.6914 5.72461 89.0195 5.36914C89.3516 5.00977 89.7441 4.73438 90.1973 4.54297C90.6504 4.34766 91.1523 4.25 91.7031 4.25C92.3008 4.25 92.8281 4.37109 93.2852 4.61328C93.7461 4.85547 94.1055 5.18945 94.3633 5.61523C94.625 6.04102 94.7559 6.53125 94.7559 7.08594C94.7559 7.22266 94.7422 7.40234 94.7148 7.625C94.6914 7.84766 94.6621 8.04883 94.627 8.22852H90.1621C90.1621 8.24023 90.1621 8.25195 90.1621 8.26367C90.1621 8.27148 90.1621 8.28125 90.1621 8.29297C90.1621 8.54297 90.207 8.75781 90.2969 8.9375C90.3906 9.11719 90.5215 9.25586 90.6895 9.35352C90.8613 9.44727 91.0645 9.49414 91.2988 9.49414C91.5371 9.49414 91.7402 9.44531 91.9082 9.34766C92.0801 9.24609 92.1973 9.10938 92.2598 8.9375H94.4746C94.3652 9.39453 94.1562 9.78906 93.8477 10.1211C93.5391 10.4531 93.1543 10.7109 92.6934 10.8945C92.2363 11.0742 91.7227 11.1641 91.1523 11.1641ZM99.2324 9.20703C99.4199 9.20703 99.5977 9.1582 99.7656 9.06055C99.9336 8.95898 100.08 8.81836 100.205 8.63867C100.334 8.45508 100.436 8.24414 100.51 8.00586C100.584 7.76367 100.621 7.50195 100.621 7.2207C100.621 6.85352 100.529 6.58203 100.346 6.40625C100.166 6.22656 99.959 6.13672 99.7246 6.13672C99.5371 6.13672 99.3594 6.19141 99.1914 6.30078C99.0273 6.40625 98.8809 6.55273 98.752 6.74023C98.623 6.92773 98.5215 7.14062 98.4473 7.37891C98.377 7.61719 98.3418 7.86719 98.3418 8.12891C98.3418 8.49609 98.4316 8.76758 98.6113 8.94336C98.791 9.11914 98.998 9.20703 99.2324 9.20703ZM97.2344 13.168H94.832L96.6953 4.41406H99.0391L98.8398 5.33984H98.957C99.1758 5.03906 99.4434 4.79492 99.7598 4.60742C100.076 4.41602 100.465 4.32031 100.926 4.32031C101.363 4.32031 101.744 4.41797 102.068 4.61328C102.396 4.80859 102.65 5.0918 102.83 5.46289C103.014 5.83398 103.105 6.2832 103.105 6.81055C103.105 7.43555 103.023 8.00977 102.859 8.5332C102.695 9.05664 102.465 9.50977 102.168 9.89258C101.871 10.2754 101.525 10.5723 101.131 10.7832C100.736 10.9902 100.307 11.0938 99.8418 11.0938C99.5254 11.0938 99.2461 11.0391 99.0039 10.9297C98.7617 10.8203 98.5605 10.6719 98.4004 10.4844C98.2441 10.293 98.1328 10.0742 98.0664 9.82812H97.9492L97.2344 13.168ZM103.615 11L105.531 1.98828H107.934L106.018 11H103.615ZM110.693 9.47656C110.861 9.47656 111.02 9.44336 111.168 9.37695C111.316 9.31055 111.441 9.2207 111.543 9.10742C111.645 8.99414 111.711 8.86523 111.742 8.7207L111.83 8.30469L110.84 8.32812C110.578 8.33203 110.367 8.39258 110.207 8.50977C110.047 8.62305 109.967 8.77148 109.967 8.95508C109.967 9.11133 110.033 9.23828 110.166 9.33594C110.303 9.42969 110.479 9.47656 110.693 9.47656ZM109.568 11.0938C109.205 11.0938 108.879 11.0176 108.59 10.8652C108.305 10.709 108.078 10.4961 107.91 10.2266C107.742 9.95703 107.658 9.65234 107.658 9.3125C107.658 8.62891 107.928 8.08594 108.467 7.68359C109.01 7.27734 109.75 7.06445 110.688 7.04492L112.105 7.01562L112.188 6.63477C112.195 6.58398 112.201 6.54688 112.205 6.52344C112.209 6.49609 112.211 6.47461 112.211 6.45898C112.211 6.31055 112.139 6.19141 111.994 6.10156C111.85 6.01172 111.66 5.9668 111.426 5.9668C111.293 5.9668 111.17 5.98242 111.057 6.01367C110.947 6.04492 110.852 6.08984 110.77 6.14844C110.691 6.20312 110.629 6.27344 110.582 6.35938H108.426C108.516 5.92969 108.705 5.55859 108.994 5.24609C109.283 4.92969 109.65 4.68555 110.096 4.51367C110.541 4.33789 111.041 4.25 111.596 4.25C112.182 4.25 112.695 4.33594 113.137 4.50781C113.582 4.67578 113.928 4.91016 114.174 5.21094C114.424 5.51172 114.549 5.86328 114.549 6.26562C114.549 6.34766 114.543 6.43945 114.531 6.54102C114.523 6.64258 114.512 6.72656 114.496 6.79297L113.6 11H111.268L111.432 10.2266H111.314C111.213 10.4023 111.072 10.5547 110.893 10.6836C110.713 10.8125 110.508 10.9141 110.277 10.9883C110.051 11.0586 109.814 11.0938 109.568 11.0938ZM115.287 13.4141C115.146 13.4141 115.004 13.4141 114.859 13.4141C114.719 13.4141 114.576 13.4141 114.432 13.4141L114.812 11.6211C114.871 11.6211 114.93 11.6211 114.988 11.6211C115.047 11.6211 115.105 11.6211 115.164 11.6211C115.523 11.6211 115.816 11.582 116.043 11.5039C116.273 11.4258 116.406 11.3203 116.441 11.1875C116.445 11.1758 116.447 11.1621 116.447 11.1465C116.451 11.1348 116.453 11.1211 116.453 11.1055C116.457 11.0938 116.461 11.082 116.465 11.0703L115.809 4.41406H118.281V9.06641H118.398L120.379 4.41406H122.928L119.57 10.8652C119.258 11.4707 118.902 11.9609 118.504 12.3359C118.109 12.7109 117.65 12.9844 117.127 13.1562C116.604 13.3281 115.99 13.4141 115.287 13.4141ZM126.086 6.71094H125.195L125.787 3.91602H127.275C127.541 3.91602 127.766 4.00391 127.949 4.17969C128.133 4.35547 128.225 4.57422 128.225 4.83594C128.225 5.04688 128.158 5.23633 128.025 5.4043C127.896 5.57227 127.723 5.69141 127.504 5.76172L127.92 6.71094H126.941L126.584 5.83203H126.268L126.086 6.71094ZM126.537 4.5957L126.408 5.20508H126.889C127.014 5.20508 127.111 5.17578 127.182 5.11719C127.252 5.05469 127.287 4.97461 127.287 4.87695C127.287 4.78711 127.258 4.71875 127.199 4.67188C127.145 4.62109 127.064 4.5957 126.959 4.5957H126.537ZM126.684 8.43359C126.062 8.43359 125.514 8.30273 125.037 8.04102C124.564 7.7793 124.195 7.41602 123.93 6.95117C123.664 6.48633 123.531 5.94922 123.531 5.33984C123.531 4.76562 123.672 4.24609 123.953 3.78125C124.234 3.3125 124.613 2.93945 125.09 2.66211C125.57 2.38477 126.102 2.24609 126.684 2.24609C127.309 2.24609 127.857 2.37695 128.33 2.63867C128.803 2.90039 129.172 3.26367 129.438 3.72852C129.703 4.18945 129.836 4.72656 129.836 5.33984C129.836 5.91016 129.695 6.42969 129.414 6.89844C129.133 7.36719 128.754 7.74023 128.277 8.01758C127.801 8.29492 127.27 8.43359 126.684 8.43359ZM126.684 7.54297C127.09 7.54297 127.459 7.44531 127.791 7.25C128.127 7.05078 128.393 6.78516 128.588 6.45312C128.787 6.11719 128.887 5.74609 128.887 5.33984C128.887 4.89453 128.795 4.50781 128.611 4.17969C128.432 3.84766 128.176 3.5918 127.844 3.41211C127.516 3.22852 127.129 3.13672 126.684 3.13672C126.277 3.13672 125.906 3.23633 125.57 3.43555C125.238 3.63086 124.973 3.89648 124.773 4.23242C124.578 4.56445 124.48 4.93359 124.48 5.33984C124.48 5.78516 124.57 6.17383 124.75 6.50586C124.934 6.83398 125.189 7.08984 125.518 7.27344C125.85 7.45312 126.238 7.54297 126.684 7.54297Z" fill="white"/>
<path d="M11.8161 3H18.8161L18.3621 5H11.3621L11.8161 3Z" fill="url(#paint0_linear_1_2)"/>
<path d="M6.13505 6H18.1351L17.681 8H5.68103L6.13505 6Z" fill="url(#paint1_linear_1_2)"/>
<path d="M0.45402 9H17.454L17 11H-1.34026e-06L0.45402 9Z" fill="url(#paint2_linear_1_2)"/>
</g>
<defs>
<linearGradient id="paint0_linear_1_2" x1="18.5" y1="3" x2="11.8431" y2="4.5112" gradientUnits="userSpaceOnUse">
<stop stop-color="white"/>
<stop offset="1" stop-color="white" stop-opacity="0"/>
</linearGradient>
<linearGradient id="paint1_linear_1_2" x1="18" y1="6" x2="7.0636" y2="8.48268" gradientUnits="userSpaceOnUse">
<stop stop-color="white"/>
<stop offset="1" stop-color="white" stop-opacity="0"/>
</linearGradient>
<linearGradient id="paint2_linear_1_2" x1="17.5" y1="9" x2="1.33314" y2="12.6701" gradientUnits="userSpaceOnUse">
<stop stop-color="white"/>
<stop offset="1" stop-color="white" stop-opacity="0"/>
</linearGradient>
<clipPath id="clip0_1_2">
<rect width="130" height="14" fill="white"/>
</clipPath>
</defs>
</svg>
